<svg width="1440" height="780" viewBox="0 0 1440 780" fill="none" xmlns="http://www.w3.org/2000/svg">
<path d="M-60.3494 777.874C-39.3049 684.498 52.1943 491.116 249.835 464.596C496.885 431.446 675.486 612.603 951.934 555.776C1173.09 510.315 1358.76 167.923 1423.94 2.40889M-123.448 452.135C-86.5783 522.986 37.4973 654.662 238.842 614.557C490.523 564.425 825.853 97.3608 1147.92 135.056C1405.57 165.212 1624.58 206.899 1701.88 223.973M-118.811 635.839C-105.24 523.511 -18.0889 288.491 221.945 247.04C521.987 195.227 746.504 399.771 1070.59 336.576C1329.86 286.021 1500.74 133.341 1553.77 63.3206" stroke="white" stroke-opacity="0.8" stroke-width="3" stroke-linecap="round"/>
</svg>
